<svg width="36" height="35" viewBox="0 0 36 35" fill="none" xmlns="http://www.w3.org/2000/svg">
<path d="M32.5834 21.8753V13.1253C32.5834 5.83366 29.6667 2.91699 22.375 2.91699H13.625C6.33335 2.91699 3.41669 5.83366 3.41669 13.1253V21.8753C3.41669 29.167 6.33335 32.0837 13.625 32.0837H22.375C29.6667 32.0837 32.5834 29.167 32.5834 21.8753Z" stroke="#1D1D1F" stroke-width="2" stroke-linecap="round" stroke-linejoin="round"/>
<path d="M4.17499 10.3691H31.825" stroke="#1D1D1F" stroke-width="2" stroke-linecap="round" stroke-linejoin="round"/>
<path d="M12.925 3.07715V10.1646" stroke="#1D1D1F" stroke-width="2" stroke-linecap="round" stroke-linejoin="round"/>
<path d="M23.075 3.07715V9.5084" stroke="#1D1D1F" stroke-width="2" stroke-linecap="round" stroke-linejoin="round"/>
<path d="M14.7188 21.0727V19.3227C14.7188 17.0768 16.3083 16.1581 18.2479 17.281L19.7646 18.156L21.2813 19.031C23.2208 20.1539 23.2208 21.9914 21.2813 23.1143L19.7646 23.9893L18.2479 24.8643C16.3083 25.9873 14.7188 25.0685 14.7188 22.8227V21.0727V21.0727Z" stroke="#1D1D1F" stroke-width="2" stroke-miterlimit="10" stroke-linecap="round" stroke-linejoin="round"/>
</svg>
