<svg width="36" height="35" viewBox="0 0 36 35" fill="none" xmlns="http://www.w3.org/2000/svg">
<path d="M32.1021 20.8545L31.5188 28.1462C31.3 30.3774 31.125 32.0837 27.1729 32.0837H8.82709C4.87501 32.0837 4.70001 30.3774 4.48126 28.1462L3.89792 20.8545C3.78126 19.6441 4.16042 18.5212 4.84584 17.6607C4.86042 17.6462 4.86042 17.6462 4.87501 17.6316C5.67709 16.6545 6.88751 16.042 8.24376 16.042H27.7563C29.1125 16.042 30.3083 16.6545 31.0958 17.6024C31.1104 17.617 31.125 17.6316 31.125 17.6462C31.8396 18.5066 32.2333 19.6295 32.1021 20.8545Z" stroke="#1D1D1F" stroke-width="2" stroke-miterlimit="10"/>
<path d="M5.60416 16.6683V9.15788C5.60416 4.19954 6.84374 2.95996 11.8021 2.95996H13.6542C15.5062 2.95996 15.9292 3.51413 16.6292 4.44746L18.4812 6.92663C18.9479 7.53913 19.225 7.91829 20.4646 7.91829H24.1833C29.1417 7.91829 30.3812 9.15788 30.3812 14.1162V16.7266" stroke="#1D1D1F" stroke-width="2" stroke-miterlimit="10" stroke-linecap="round" stroke-linejoin="round"/>
<path d="M14.2521 24.792H21.7479" stroke="#1D1D1F" stroke-width="2" stroke-miterlimit="10" stroke-linecap="round" stroke-linejoin="round"/>
</svg>
