<svg width="30" height="30" viewBox="0 0 30 30" fill="none" xmlns="http://www.w3.org/2000/svg">
<path d="M12.4875 28.4373C12.2375 28.4373 12.0375 28.3873 11.8875 28.3248C11.3875 28.1373 10.5375 27.5248 10.5375 25.5873V17.5248H7.61248C5.93748 17.5248 5.33748 16.7373 5.12498 16.2748C4.91248 15.7998 4.72498 14.8373 5.82498 13.5748L15.2875 2.82479C16.5625 1.37479 17.6 1.47479 18.1 1.66229C18.6 1.84979 19.45 2.46229 19.45 4.39979V12.4623H22.375C24.05 12.4623 24.65 13.2498 24.8625 13.7123C25.075 14.1873 25.2625 15.1498 24.1625 16.4123L14.7 27.1623C13.8125 28.1748 13.0375 28.4373 12.4875 28.4373ZM17.4125 3.42479C17.375 3.47479 17.1125 3.59979 16.7 4.07479L7.23748 14.8248C6.88748 15.2248 6.83747 15.4748 6.83747 15.5248C6.86247 15.5373 7.08748 15.6623 7.61248 15.6623H11.475C11.9875 15.6623 12.4125 16.0873 12.4125 16.5998V25.5998C12.4125 26.2248 12.525 26.4998 12.575 26.5748C12.6125 26.5248 12.875 26.3998 13.2875 25.9248L22.75 15.1748C23.1 14.7748 23.15 14.5248 23.15 14.4748C23.125 14.4623 22.9 14.3373 22.375 14.3373H18.5125C18 14.3373 17.575 13.9123 17.575 13.3998V4.39979C17.5875 3.77479 17.4625 3.51229 17.4125 3.42479Z" fill="white"/>
</svg>
