<svg width="11" height="12" viewBox="0 0 11 12" fill="none" xmlns="http://www.w3.org/2000/svg">
<path d="M0.923828 2.34766C0.666016 2.34766 0.44401 2.26172 0.257812 2.08984C0.0859375 1.90365 0 1.68164 0 1.42383C0 1.16602 0.0859375 0.951172 0.257812 0.779297C0.44401 0.593099 0.666016 0.5 0.923828 0.5H10.0762C10.1478 0.5 10.2122 0.507161 10.2695 0.521484C10.3268 0.535807 10.3841 0.557292 10.4414 0.585938C10.4987 0.60026 10.5488 0.628906 10.5918 0.671875C10.6491 0.700521 10.6921 0.736328 10.7207 0.779297C10.735 0.779297 10.7422 0.779297 10.7422 0.779297C10.7852 0.822266 10.821 0.872396 10.8496 0.929688C10.8783 0.972656 10.9069 1.02279 10.9355 1.08008C10.9499 1.12305 10.9642 1.18034 10.9785 1.25195C10.9928 1.30924 11 1.36654 11 1.42383V10.5977C11 10.8411 10.9069 11.056 10.7207 11.2422C10.5488 11.4141 10.334 11.5 10.0762 11.5C9.83268 11.5 9.61784 11.4141 9.43164 11.2422C9.25977 11.056 9.17383 10.8411 9.17383 10.5977V3.63672L1.56836 11.2422C1.38216 11.4141 1.16016 11.5 0.902344 11.5C0.658854 11.5 0.451172 11.4141 0.279297 11.2422C0.093099 11.056 0 10.8411 0 10.5977C0 10.3398 0.093099 10.125 0.279297 9.95312L7.86328 2.34766H0.923828Z" fill="#6E5BFB"/>
</svg>
