<svg width="30" height="30" viewBox="0 0 30 30" fill="none" xmlns="http://www.w3.org/2000/svg">
<path d="M16.15 2.8248L24.2875 7.2123C25.2375 7.7248 25.2375 9.1873 24.2875 9.6998L16.15 14.0873C15.425 14.4748 14.575 14.4748 13.85 14.0873L5.7125 9.6998C4.7625 9.1873 4.7625 7.7248 5.7125 7.2123L13.85 2.8248C14.575 2.4373 15.425 2.4373 16.15 2.8248Z" stroke="white" stroke-width="1.8" stroke-linecap="round" stroke-linejoin="round"/>
<path d="M4.5125 12.6626L12.075 16.4501C13.0125 16.9251 13.6125 17.8876 13.6125 18.9376V26.0876C13.6125 27.1251 12.525 27.7876 11.6 27.3251L4.0375 23.5376C3.1 23.0626 2.5 22.1001 2.5 21.0501V13.9001C2.5 12.8626 3.5875 12.2001 4.5125 12.6626Z" stroke="white" stroke-width="1.8" stroke-linecap="round" stroke-linejoin="round"/>
<path d="M25.4877 12.6626L17.9252 16.4501C16.9877 16.9251 16.3877 17.8876 16.3877 18.9376V26.0876C16.3877 27.1251 17.4752 27.7876 18.4002 27.3251L25.9627 23.5376C26.9002 23.0626 27.5002 22.1001 27.5002 21.0501V13.9001C27.5002 12.8626 26.4127 12.2001 25.4877 12.6626Z" stroke="white" stroke-width="1.8" stroke-linecap="round" stroke-linejoin="round"/>
</svg>
