<svg width="30" height="30" viewBox="0 0 30 30" fill="none" xmlns="http://www.w3.org/2000/svg">
<path d="M3.7627 14.0249V19.6374C3.7627 25.2499 6.0127 27.4999 11.6252 27.4999H18.3627C23.9752 27.4999 26.2252 25.2499 26.2252 19.6374V14.0249" stroke="white" stroke-width="1.8" stroke-linecap="round" stroke-linejoin="round"/>
<path d="M15.0001 15C17.2876 15 18.9751 13.1375 18.7501 10.85L17.9251 2.5H12.0876L11.2501 10.85C11.0251 13.1375 12.7126 15 15.0001 15Z" stroke="white" stroke-width="1.8" stroke-linecap="round" stroke-linejoin="round"/>
<path d="M22.8875 15C25.4125 15 27.2625 12.95 27.0125 10.4375L26.6625 7C26.2125 3.75 24.9625 2.5 21.6875 2.5H17.875L18.75 11.2625C18.9625 13.325 20.825 15 22.8875 15Z" stroke="white" stroke-width="1.8" stroke-linecap="round" stroke-linejoin="round"/>
<path d="M7.04998 15C9.11248 15 10.975 13.325 11.175 11.2625L11.45 8.5L12.05 2.5H8.23748C4.96248 2.5 3.71248 3.75 3.26248 7L2.92498 10.4375C2.67498 12.95 4.52498 15 7.04998 15Z" stroke="white" stroke-width="1.8" stroke-linecap="round" stroke-linejoin="round"/>
<path d="M15 21.25C12.9125 21.25 11.875 22.2875 11.875 24.375V27.5H18.125V24.375C18.125 22.2875 17.0875 21.25 15 21.25Z" stroke="white" stroke-width="1.8" stroke-linecap="round" stroke-linejoin="round"/>
</svg>
