<svg width="30" height="30" viewBox="0 0 30 30" fill="none" xmlns="http://www.w3.org/2000/svg">
<path d="M27.5 18.75V11.25C27.5 5 25 2.5 18.75 2.5H11.25C5 2.5 2.5 5 2.5 11.25V18.75C2.5 25 5 27.5 11.25 27.5H18.75C25 27.5 27.5 25 27.5 18.75Z" stroke="white" stroke-width="1.8" stroke-linecap="round" stroke-linejoin="round"/>
<path d="M3.1499 8.8877H26.8499" stroke="white" stroke-width="1.8" stroke-linecap="round" stroke-linejoin="round"/>
<path d="M10.6499 2.6377V8.71269" stroke="white" stroke-width="1.8" stroke-linecap="round" stroke-linejoin="round"/>
<path d="M19.3501 2.6377V8.1502" stroke="white" stroke-width="1.8" stroke-linecap="round" stroke-linejoin="round"/>
<path d="M12.1875 18.0626V16.5626C12.1875 14.6376 13.55 13.8501 15.2125 14.8126L16.5125 15.5626L17.8125 16.3126C19.475 17.2751 19.475 18.8501 17.8125 19.8126L16.5125 20.5626L15.2125 21.3126C13.55 22.2751 12.1875 21.4876 12.1875 19.5626V18.0626V18.0626Z" stroke="white" stroke-width="1.8" stroke-miterlimit="10" stroke-linecap="round" stroke-linejoin="round"/>
</svg>
