<svg width="106" height="106" viewBox="0 0 106 106" fill="none" xmlns="http://www.w3.org/2000/svg">
<path d="M10.5728 49.829C10.5159 50.6567 10.3547 51.3322 10.0703 51.8745C9.79527 52.4072 9.44442 52.8163 9.03668 53.0732C8.62894 53.3396 8.20224 53.4633 7.76605 53.4537C7.69019 53.4537 7.62382 53.4157 7.56692 53.3586C7.51003 53.3015 7.50055 53.2349 7.50055 53.1588L7.57641 51.9791C7.57641 51.8649 7.61433 51.7793 7.66175 51.7222C7.71864 51.6652 7.77553 51.6176 7.85139 51.5795C8.02207 51.5415 8.19276 51.4463 8.37292 51.3036C8.5436 51.1609 8.69532 50.9706 8.81859 50.7138C8.94186 50.4569 9.01772 50.1334 9.04616 49.7339C9.08409 49.0964 9.01772 48.6112 8.81859 48.2878C8.62894 47.9643 8.35395 47.7835 7.98414 47.7645C7.72812 47.7455 7.51951 47.8121 7.34883 47.9738C7.18763 48.1356 7.02643 48.3829 6.87471 48.7254C6.723 49.0679 6.5618 49.5246 6.38163 50.0859C6.18251 50.7423 5.94545 51.2846 5.68943 51.7127C5.4334 52.1408 5.12997 52.4643 4.76964 52.6641C4.40931 52.8639 3.96365 52.9495 3.43264 52.9115C2.92059 52.8734 2.47492 52.7117 2.09563 52.3977C1.71634 52.0933 1.43187 51.6747 1.23274 51.1419C1.03361 50.6091 0.967237 49.9812 1.01465 49.2677C1.05258 48.6873 1.16637 48.1926 1.34653 47.755C1.52669 47.3174 1.75427 46.9654 2.02926 46.6895C2.30424 46.4136 2.57923 46.2138 2.88266 46.0711C3.17661 45.9379 3.46108 45.8713 3.73607 45.8808C3.80245 45.8808 3.86882 45.9188 3.92572 45.9664C3.98261 46.014 4.00158 46.0901 4.00158 46.1757L3.91623 47.4125C3.91623 47.4886 3.88779 47.5552 3.84986 47.6218C3.81193 47.6884 3.73607 47.7455 3.64125 47.7835C3.36626 47.8216 3.11972 47.9738 2.90163 48.2592C2.69302 48.5351 2.56975 48.9062 2.53182 49.3723C2.50337 49.848 2.56026 50.2381 2.72146 50.5425C2.88266 50.847 3.13869 51.0087 3.5085 51.0372C3.75504 51.0563 3.96365 50.9992 4.14381 50.8565C4.31449 50.7233 4.47569 50.495 4.61793 50.181C4.76016 49.8671 4.92136 49.4484 5.10152 48.9252C5.31962 48.1831 5.55667 47.5838 5.80321 47.1176C6.05924 46.6514 6.36267 46.3279 6.71352 46.1282C7.06436 45.9284 7.51003 45.8522 8.03156 45.8808C8.60998 45.9188 9.10306 46.1091 9.49183 46.4516C9.88061 46.7941 10.1651 47.2603 10.3547 47.8406C10.5444 48.421 10.6013 49.0869 10.5539 49.8385L10.5728 49.829Z" fill="white" stroke="white" stroke-width="0.17" stroke-miterlimit="10"/>
<path d="M13.0761 37.6029C13.0477 37.6885 12.9908 37.7456 12.9055 37.7837C12.8296 37.8217 12.7443 37.8217 12.6589 37.7837L5.82217 35.0818L4.92135 37.3746C4.8929 37.4602 4.83601 37.5173 4.75067 37.5553C4.67481 37.5934 4.58947 37.5934 4.50413 37.5553L3.59383 37.1938C3.50848 37.1558 3.44211 37.0987 3.40418 37.0226C3.36625 36.9465 3.36625 36.8608 3.40418 36.7752L5.88854 30.4581C5.92647 30.3724 5.98337 30.3059 6.05923 30.2678C6.13508 30.2297 6.22991 30.2297 6.31525 30.2678L7.22555 30.6293C7.31089 30.6579 7.36778 30.7149 7.40571 30.8006C7.44364 30.8862 7.44364 30.9718 7.40571 31.0574L6.51438 33.3407L13.3416 36.0426C13.427 36.0712 13.4839 36.1283 13.5218 36.2139C13.5597 36.29 13.5597 36.3756 13.5218 36.4708L13.0761 37.6124V37.6029Z" fill="white" stroke="white" stroke-width="0.17" stroke-miterlimit="10"/>
<path d="M17.0302 29.3266C16.9828 29.3837 16.9259 29.4122 16.8501 29.4312C16.7742 29.4407 16.7078 29.4312 16.6414 29.3741C16.613 29.3551 16.5846 29.3171 16.5656 29.279L11.8434 21.4206C11.7865 21.3445 11.7581 21.2589 11.7581 21.1543C11.7581 21.0496 11.796 20.9545 11.8718 20.8498L12.7727 19.7082C12.858 19.6035 12.9433 19.5464 13.0382 19.5274C13.133 19.5084 13.2278 19.5274 13.3226 19.5464L22.0179 22.372C22.0179 22.372 22.0938 22.4101 22.1222 22.4386C22.1886 22.4862 22.217 22.5528 22.2265 22.6289C22.2265 22.705 22.2265 22.7716 22.1696 22.8287L21.449 23.742C21.3731 23.8371 21.2973 23.8942 21.2119 23.9037C21.1266 23.9037 21.0602 23.9037 21.0128 23.8847L19.3534 23.3615L16.9069 26.4629L17.7888 27.9661C17.7888 27.9661 17.8362 28.0803 17.8457 28.1564C17.8457 28.242 17.8173 28.3276 17.7414 28.4228L17.0207 29.3361L17.0302 29.3266ZM15.9966 25.1405L17.8741 22.7716L13.7209 21.4016L15.9966 25.1405Z" fill="white" stroke="white" stroke-width="0.17" stroke-miterlimit="10"/>
<path d="M27.2426 18.414C27.1668 18.4616 27.0909 18.4806 27.0056 18.4616C26.9202 18.4425 26.8538 18.395 26.8064 18.3189L22.1032 11.0503C22.0463 10.9647 22.0273 10.8886 22.0558 10.803C22.0748 10.7174 22.1222 10.6508 22.198 10.6032L25.0806 8.71947C25.9815 8.13914 26.8254 7.88226 27.6124 7.95837C28.3995 8.03448 29.0537 8.47212 29.5658 9.27127C29.9261 9.82307 30.0873 10.3654 30.0494 10.9076C30.0115 11.4499 29.8218 11.9541 29.4804 12.4108L32.951 14.1994C32.9984 14.2279 33.0363 14.266 33.0648 14.304C33.1122 14.3706 33.1216 14.4468 33.1027 14.5229C33.0837 14.599 33.0458 14.6561 32.9889 14.6941L31.9743 15.3506C31.851 15.4362 31.7277 15.4647 31.614 15.4362C31.5002 15.4076 31.4053 15.3791 31.3295 15.3315L28.1814 13.6191L26.6357 14.6275L28.371 17.3104C28.4184 17.3865 28.4374 17.4626 28.4184 17.5482C28.3995 17.6339 28.352 17.7005 28.2762 17.7575L27.2616 18.414H27.2426ZM25.7918 13.3717L27.3659 12.3537C27.821 12.0588 28.0865 11.7353 28.1814 11.3833C28.2762 11.0313 28.2003 10.6698 27.9538 10.2988C27.7167 9.92772 27.4133 9.7089 27.053 9.63279C26.6926 9.5662 26.2849 9.68036 25.8298 9.97529L24.2557 11.0028L25.7918 13.3717Z" fill="white" stroke="white" stroke-width="0.17" stroke-miterlimit="10"/>
<path d="M41.3429 11.4608C41.2576 11.4798 41.1817 11.4703 41.1058 11.4322C41.03 11.3847 40.9826 11.3181 40.9541 11.2324L39.0387 4.12566L36.6681 4.76308C36.5828 4.79162 36.5069 4.77259 36.4311 4.73454C36.3552 4.69649 36.3078 4.62989 36.2793 4.53475L36.0233 3.58338C35.9949 3.48824 36.0044 3.40261 36.0518 3.3265C36.0992 3.25039 36.1561 3.20283 36.2509 3.17428L42.7842 1.40473C42.879 1.37619 42.9644 1.3857 43.0402 1.43327C43.1161 1.48084 43.1635 1.54743 43.192 1.64257L43.448 2.59395C43.4669 2.67957 43.4575 2.76519 43.4195 2.83179C43.3721 2.9079 43.3057 2.95547 43.2109 2.98401L40.8498 3.62143L42.7558 10.7377C42.7747 10.8233 42.7652 10.8995 42.7273 10.9756C42.6799 11.0517 42.6135 11.0992 42.5187 11.1278L41.3429 11.4417V11.4608Z" fill="white" stroke="white" stroke-width="0.17" stroke-miterlimit="10"/>
<path d="M62.3367 10.8216C62.2514 10.8026 62.185 10.755 62.1376 10.6789C62.0902 10.6028 62.0807 10.5267 62.0997 10.4411L62.7824 7.51084L60.9997 1.37447C60.9997 1.37447 60.9997 1.33641 60.9902 1.29836C60.9902 1.26982 60.9902 1.24128 60.9902 1.22225C61.0092 1.14614 61.0471 1.08906 61.1135 1.04149C61.1799 1.00343 61.2463 0.993918 61.3126 1.00343L62.46 1.26982C62.5643 1.29836 62.6402 1.33641 62.697 1.40301C62.7539 1.46961 62.7824 1.5362 62.7919 1.6028L64.1004 5.8935L67.1727 2.63028C67.2201 2.58271 67.2865 2.53515 67.3623 2.49709C67.4382 2.45904 67.533 2.44952 67.6373 2.47806L68.7752 2.74445C68.8511 2.76348 68.908 2.80153 68.9459 2.86813C68.9838 2.93472 68.9933 3.00132 68.9838 3.07743C68.9838 3.10597 68.9649 3.125 68.9554 3.15354C68.9459 3.18208 68.9269 3.20111 68.908 3.21062L64.584 7.91042L63.9013 10.8407C63.8823 10.9263 63.8349 10.9929 63.7591 11.0404C63.6832 11.088 63.5979 11.0975 63.503 11.0785L62.3272 10.8026L62.3367 10.8216Z" fill="white" stroke="white" stroke-width="0.17" stroke-miterlimit="10"/>
<path d="M75.2991 16.1969C74.6259 15.7879 74.1139 15.3217 73.7725 14.7984C73.4216 14.2752 73.2604 13.7043 73.2699 13.0669C73.2794 12.4295 73.488 11.7635 73.8863 11.05C74.0759 10.717 74.2656 10.3936 74.4647 10.0796C74.6543 9.76565 74.863 9.44219 75.0716 9.10921C75.5172 8.43373 76.0198 7.94853 76.5792 7.66312C77.1387 7.36819 77.7361 7.26354 78.3619 7.32062C78.9972 7.38722 79.6326 7.61555 80.2773 8.01512C80.9221 8.4147 81.4247 8.88088 81.7756 9.41365C82.1264 9.94642 82.2971 10.5363 82.2971 11.1642C82.2971 11.8016 82.098 12.4676 81.6997 13.1716C81.51 13.5141 81.3204 13.8471 81.1213 14.161C80.9316 14.475 80.723 14.7984 80.5144 15.1124C80.0687 15.7974 79.5662 16.2921 79.0067 16.587C78.4473 16.8915 77.8594 16.9961 77.243 16.92C76.6267 16.8439 75.9724 16.606 75.2991 16.1874V16.1969ZM76.0957 14.8936C76.5887 15.198 77.0723 15.2931 77.5654 15.1885C78.049 15.0838 78.5042 14.7128 78.9309 14.0659C79.149 13.7424 79.3481 13.438 79.5188 13.1525C79.6895 12.8671 79.8696 12.5627 80.0498 12.2202C80.3058 11.7731 80.4386 11.364 80.4575 10.9929C80.4765 10.6219 80.4006 10.3079 80.2299 10.0225C80.0593 9.73711 79.8127 9.50878 79.4808 9.30899C79.1679 9.11872 78.8455 9.00455 78.5136 8.97601C78.1912 8.94747 77.8688 9.02358 77.5559 9.21386C77.243 9.40413 76.9396 9.70857 76.6551 10.1367C76.4465 10.4602 76.2569 10.7646 76.0862 11.05C75.9155 11.3354 75.7258 11.6399 75.5362 11.9824C75.1569 12.6578 75.0336 13.2287 75.1664 13.7139C75.2991 14.1991 75.6026 14.5891 76.0862 14.8841L76.0957 14.8936Z" fill="white" stroke="white" stroke-width="0.17" stroke-miterlimit="10"/>
<path d="M85.9476 25.4446C85.4545 24.8547 85.1321 24.2458 84.9709 23.6465C84.8097 23.0376 84.8382 22.4477 85.0563 21.8579C85.2744 21.268 85.72 20.7067 86.3648 20.1549L90.5181 16.6919C90.5939 16.6253 90.6793 16.5968 90.7646 16.6063C90.85 16.6063 90.9258 16.6538 90.9827 16.7204L91.7508 17.6528C91.8171 17.7289 91.8361 17.805 91.8266 17.8906C91.8172 17.9763 91.7697 18.0524 91.6939 18.1094L87.5311 21.5725C86.9717 22.0386 86.6683 22.5143 86.6208 23.009C86.5734 23.5037 86.7441 23.9794 87.1234 24.4456C87.5122 24.9118 87.9389 25.1591 88.432 25.1972C88.9156 25.2353 89.4371 25.0259 89.9965 24.5598L94.1593 21.0968C94.2351 21.0302 94.311 21.0111 94.4058 21.0207C94.4912 21.0207 94.567 21.0682 94.6334 21.1443L95.4015 22.0672C95.4584 22.1433 95.4868 22.2194 95.4773 22.305C95.4678 22.3906 95.4204 22.4667 95.3446 22.5238L91.1818 25.9868C90.5276 26.5291 89.8922 26.8621 89.2759 26.9763C88.6595 27.0904 88.0716 27.0143 87.5122 26.7479C86.9527 26.4816 86.4217 26.0439 85.9286 25.4446H85.9476Z" fill="white" stroke="white" stroke-width="0.17" stroke-miterlimit="10"/>
<path d="M91.9879 34.5579C91.9594 34.4723 91.9594 34.3962 91.9879 34.3106C92.0258 34.2345 92.0827 34.1774 92.1681 34.1393L100.247 31.0569C100.342 31.0188 100.427 31.0188 100.503 31.0569C100.579 31.0949 100.636 31.152 100.674 31.2376L101.897 34.4628C102.276 35.4712 102.343 36.3465 102.106 37.1076C101.859 37.8687 101.3 38.411 100.408 38.7535C99.7918 38.9913 99.2324 39.0294 98.7108 38.8772C98.1893 38.7249 97.7436 38.4395 97.3738 38.0019L94.899 41.0273C94.899 41.0273 94.8231 41.1034 94.7757 41.1129C94.6998 41.1414 94.6335 41.1414 94.5576 41.1129C94.4912 41.0748 94.4438 41.0273 94.4154 40.9607L93.9887 39.8285C93.9318 39.6858 93.9318 39.5622 93.9792 39.467C94.0266 39.3719 94.074 39.2767 94.1404 39.2101L96.473 36.4797L95.8187 34.7482L92.8413 35.8803C92.756 35.9089 92.6801 35.9089 92.6042 35.8803C92.5284 35.8518 92.4715 35.7852 92.4336 35.6996L92.0069 34.5674L91.9879 34.5579ZM97.2126 34.2059L97.8764 35.966C98.0661 36.4702 98.3221 36.8032 98.6445 36.9649C98.9669 37.1266 99.3367 37.1266 99.7444 36.9649C100.152 36.8032 100.437 36.5558 100.579 36.2228C100.721 35.8898 100.693 35.4617 100.503 34.948L99.8392 33.1879L97.2126 34.1869V34.2059Z" fill="white" stroke="white" stroke-width="0.17" stroke-miterlimit="10"/>
<path d="M95.7997 56.4493C95.8092 56.3637 95.8566 56.2876 95.923 56.24C95.9988 56.1829 96.0747 56.1639 96.16 56.1829L104.713 57.4482C104.808 57.4578 104.884 57.5053 104.941 57.5719C104.988 57.6385 105.007 57.7241 104.998 57.8098L104.154 63.5275C104.135 63.6227 104.097 63.6988 104.03 63.7559C103.954 63.8034 103.879 63.832 103.774 63.8129L102.855 63.6798C102.76 63.6702 102.684 63.6227 102.636 63.5561C102.589 63.4895 102.57 63.4039 102.589 63.3087L103.215 59.0751L100.721 58.7041L100.133 62.6713C100.114 62.7664 100.076 62.8425 100.01 62.8996C99.9435 62.9567 99.8581 62.9662 99.7633 62.9567L98.8435 62.8235C98.7582 62.814 98.6823 62.7664 98.6349 62.6998C98.578 62.6332 98.5591 62.5476 98.578 62.4525L99.1659 58.4852L95.904 58C95.8187 57.9905 95.7428 57.943 95.6954 57.8764C95.648 57.8098 95.6195 57.7241 95.6385 57.629L95.8092 56.4683L95.7997 56.4493Z" fill="white" stroke="white" stroke-width="0.17" stroke-miterlimit="10"/>
<path d="M92.8224 68.9986C92.8603 68.9225 92.9172 68.8654 93.0025 68.8369C93.0879 68.8084 93.1637 68.8179 93.2491 68.8559L100.987 72.7185C101.072 72.7661 101.129 72.8232 101.157 72.9088C101.186 72.9944 101.176 73.0705 101.138 73.1561L99.6117 76.2481C99.1376 77.209 98.5402 77.8559 97.8195 78.1889C97.0989 78.5219 96.3118 78.4839 95.4679 78.0557C94.88 77.7608 94.4628 77.3707 94.2257 76.8951C93.9792 76.4099 93.8939 75.8866 93.9602 75.3063L90.063 75.5346C90.0061 75.5346 89.9492 75.5346 89.9113 75.506C89.8354 75.468 89.7975 75.4204 89.769 75.3443C89.7501 75.2682 89.7501 75.2016 89.788 75.135L90.3285 74.0504C90.3949 73.9173 90.4802 73.8316 90.5845 73.7936C90.6888 73.7555 90.7931 73.7365 90.8785 73.7365L94.4628 73.6033L95.2878 71.9479L92.4336 70.5208C92.3577 70.4828 92.3008 70.4162 92.2724 70.3401C92.2439 70.264 92.2534 70.1783 92.2913 70.0927L92.8318 69.0082L92.8224 68.9986ZM96.6248 72.6044L95.7903 74.2883C95.5533 74.7735 95.4774 75.1921 95.5817 75.5346C95.686 75.8771 95.9325 76.153 96.3308 76.3528C96.7291 76.5526 97.0989 76.5906 97.4402 76.4669C97.7816 76.3433 98.0755 76.0388 98.3221 75.5441L99.1565 73.8602L96.6342 72.6044H96.6248Z" fill="white" stroke="white" stroke-width="0.17" stroke-miterlimit="10"/>
<path d="M85.5683 80.8071C85.6347 80.7405 85.7011 80.7119 85.7959 80.7119C85.8812 80.7119 85.9571 80.7405 86.0235 80.8071L92.1964 86.8768C92.2628 86.9434 92.3007 87.0195 92.3007 87.1147C92.3007 87.2003 92.2723 87.2764 92.2059 87.343L88.1096 91.529C88.0432 91.5956 87.9673 91.6337 87.8725 91.6337C87.7872 91.6337 87.7018 91.6052 87.6355 91.529L87.0096 90.9107C86.9432 90.8441 86.9148 90.7775 86.9148 90.6823C86.9148 90.5967 86.9527 90.5111 87.0191 90.4445L90.0819 87.3145L88.4035 85.6591L85.5493 88.5798C85.483 88.6464 85.4071 88.6844 85.3218 88.694C85.2364 88.694 85.1606 88.6654 85.0942 88.5988L84.5063 88.0185C84.4399 87.9519 84.402 87.8758 84.402 87.7901C84.402 87.7045 84.4399 87.6284 84.5063 87.5618L87.3605 84.6411L85.6252 82.9381L82.496 86.1443C82.4297 86.2109 82.3538 86.2489 82.259 86.2489C82.1736 86.2489 82.0883 86.2109 82.0219 86.1443L81.3961 85.5259C81.3297 85.4593 81.3013 85.3927 81.3013 85.2975C81.3013 85.2119 81.3392 85.1358 81.4056 85.0597L85.5683 80.7975V80.8071Z" fill="white" stroke="white" stroke-width="0.17" stroke-miterlimit="10"/>
<path d="M75.5457 89.3784C75.6215 89.3403 75.7069 89.3308 75.7922 89.3594C75.8776 89.3879 75.9344 89.4355 75.9819 89.5116L80.0308 97.1702C80.0782 97.2558 80.0877 97.3414 80.0592 97.427C80.0308 97.5127 79.9834 97.5697 79.898 97.6173L74.7397 100.357C74.6543 100.405 74.569 100.414 74.4836 100.386C74.3983 100.357 74.3319 100.3 74.2845 100.215L73.8768 99.4344C73.8389 99.3583 73.8294 99.2727 73.8578 99.1871C73.8863 99.1015 73.9432 99.0349 74.0285 98.9873L77.8878 96.9323L76.7878 94.8488L73.1846 96.7611C73.0992 96.8086 73.0139 96.8181 72.9285 96.7991C72.8432 96.7801 72.7863 96.723 72.7389 96.6374L72.3501 95.9048C72.3027 95.8192 72.2932 95.7336 72.3217 95.6575C72.3501 95.5814 72.407 95.5148 72.4924 95.4672L76.0956 93.5549L74.9578 91.4048L71.0036 93.5074C70.9183 93.5549 70.833 93.5644 70.7476 93.5359C70.6623 93.5074 70.5959 93.4598 70.558 93.3647L70.1502 92.5845C70.1123 92.5084 70.1028 92.4228 70.1218 92.3372C70.1502 92.2515 70.2071 92.1849 70.2925 92.1374L75.5457 89.3499V89.3784Z" fill="white" stroke="white" stroke-width="0.17" stroke-miterlimit="10"/>
<path d="M53.2147 95.647C53.3 95.647 53.3759 95.6755 53.4423 95.7421C53.4992 95.8087 53.5371 95.8848 53.5276 95.9704L53.4423 103.334L55.8982 103.363C55.9835 103.363 56.0594 103.391 56.1258 103.458C56.1826 103.524 56.2206 103.6 56.2111 103.686V104.676C56.2016 104.771 56.1637 104.856 56.1068 104.913C56.0499 104.97 55.9646 105.008 55.8792 104.999L49.1088 104.923C49.014 104.923 48.9287 104.885 48.8718 104.828C48.8054 104.761 48.777 104.685 48.7864 104.59V103.6C48.7959 103.515 48.8244 103.439 48.8908 103.372C48.9571 103.315 49.033 103.277 49.1278 103.286L51.5648 103.315L51.6501 95.9514C51.6501 95.8658 51.688 95.7897 51.7449 95.7231C51.8113 95.6565 51.8872 95.6279 51.982 95.6279H53.2052L53.2147 95.647Z" fill="white" stroke="white" stroke-width="0.17" stroke-miterlimit="10"/>
<path d="M42.3953 94.4009C42.4807 94.4294 42.5376 94.4865 42.5755 94.5626C42.6134 94.6387 42.6229 94.7243 42.5945 94.8099L39.8351 103.03C39.8067 103.125 39.7498 103.192 39.6739 103.23C39.5981 103.268 39.5127 103.277 39.4274 103.249L36.1655 102.145C35.1509 101.803 34.4302 101.298 34.0035 100.623C33.5768 99.9474 33.5104 99.1672 33.8139 98.273C34.0225 97.645 34.3543 97.1884 34.8 96.8744C35.2457 96.5605 35.7577 96.4083 36.3267 96.3892L35.5681 92.5457C35.5681 92.4886 35.5681 92.4315 35.5681 92.3935C35.5965 92.3173 35.6439 92.2603 35.7103 92.2317C35.7862 92.1937 35.8526 92.1937 35.9189 92.2127L37.0663 92.6028C37.2085 92.6503 37.3033 92.7264 37.3508 92.8311C37.3982 92.9357 37.4361 93.0309 37.4551 93.1165L38.0714 96.6556L39.8162 97.2455L40.8308 94.2201C40.8592 94.1345 40.9066 94.0774 40.9825 94.0298C41.0583 93.9918 41.1437 93.9823 41.229 94.0203L42.3764 94.4104L42.3953 94.4009ZM39.3515 98.6725L37.5783 98.0732C37.0663 97.9019 36.6491 97.8829 36.3172 98.0351C35.9853 98.1778 35.7577 98.4632 35.6155 98.8818C35.4733 99.3004 35.4922 99.6715 35.6534 99.9949C35.8241 100.318 36.1655 100.566 36.687 100.747L38.4602 101.346L39.361 98.6725H39.3515Z" fill="white" stroke="white" stroke-width="0.17" stroke-miterlimit="10"/>
<path d="M29.6512 88.6156C29.727 88.6632 29.7649 88.7298 29.7839 88.8154C29.8029 88.901 29.7839 88.9867 29.7365 89.0533L24.8816 96.2362C24.8341 96.3123 24.7678 96.3598 24.6824 96.3693C24.5971 96.3789 24.5117 96.3693 24.4454 96.3218L23.4118 95.6178C23.3359 95.5607 23.2885 95.4941 23.2696 95.4085C23.2601 95.3228 23.2696 95.2467 23.3265 95.1706L28.1814 87.9877C28.2288 87.9116 28.2952 87.8641 28.3805 87.845C28.4659 87.826 28.5417 87.845 28.6271 87.9021L29.6606 88.6061L29.6512 88.6156Z" fill="white" stroke="white" stroke-width="0.17" stroke-miterlimit="10"/>
<path d="M23.1274 83.6018C23.1748 83.6589 23.1938 83.7255 23.1938 83.8016C23.1938 83.8777 23.1558 83.9443 23.0989 84.0014C23.0705 84.03 23.0326 84.0395 22.9852 84.0585L14.3847 87.16C14.2994 87.198 14.2045 87.2076 14.1097 87.198C14.0054 87.179 13.9201 87.1219 13.8347 87.0268L12.896 85.9232C12.8106 85.8185 12.7727 85.7234 12.7727 85.6283C12.7727 85.5331 12.8012 85.438 12.8486 85.3524L17.3147 77.3513C17.3147 77.3513 17.3716 77.2847 17.4001 77.2657C17.457 77.2181 17.5233 77.1896 17.5992 77.1991C17.6751 77.1991 17.732 77.2371 17.7794 77.2847L18.5285 78.1695C18.6138 78.2646 18.6423 78.3503 18.6423 78.4359C18.6423 78.5215 18.6138 78.5786 18.5854 78.6262L17.7509 80.1579L20.3017 83.1737L21.9421 82.6029C21.9895 82.5839 22.0559 82.5744 22.1412 82.5839C22.2266 82.5839 22.3024 82.641 22.3783 82.7361L23.1274 83.6209V83.6018ZM18.8319 83.7921L16.888 81.4898L14.7355 85.3048L18.8319 83.7921Z" fill="white" stroke="white" stroke-width="0.17" stroke-miterlimit="10"/>
<path d="M14.489 71.3473C14.527 71.4329 14.527 71.509 14.489 71.5947C14.4511 71.6708 14.3942 71.7278 14.3184 71.7659L6.31529 75.0672C6.22995 75.1052 6.15409 75.1052 6.06875 75.0672C5.99289 75.0291 5.936 74.972 5.89807 74.8959L5.42395 73.7543C5.38603 73.6686 5.38603 73.5925 5.42395 73.5069C5.46188 73.4213 5.51878 73.3642 5.59464 73.3357L12.4314 70.5196L10.8289 66.619C10.7909 66.5238 10.7909 66.4382 10.8289 66.3621C10.8668 66.286 10.9237 66.2194 11.0185 66.1813L11.8814 65.8293C11.9667 65.7913 12.0426 65.7913 12.1279 65.8293C12.2133 65.8674 12.2702 65.9245 12.3081 66.0196L14.4985 71.3663L14.489 71.3473Z" fill="white" stroke="white" stroke-width="0.17" stroke-miterlimit="10"/>
</svg>
