<svg width="30" height="30" viewBox="0 0 30 30" fill="none" xmlns="http://www.w3.org/2000/svg">
<path d="M17.6875 28.4375H12.3375C11.0625 28.4375 9.88749 27.9 9.13749 26.95C8.47499 26.125 8.23749 25.075 8.46249 24.075L9.32499 20.225C9.42499 19.8 9.79999 19.5 10.2375 19.5H19.7875C20.225 19.5 20.6 19.8 20.7 20.225L21.575 24.075C21.8125 25.15 21.5875 26.1875 20.9375 27C20.2125 27.9125 19.025 28.4375 17.6875 28.4375ZM10.9875 21.375L10.2875 24.5C10.1875 24.95 10.3 25.4 10.6 25.7875C10.9875 26.275 11.6375 26.5625 12.3375 26.5625H17.7C18.4625 26.5625 19.1125 26.3 19.475 25.8375C19.775 25.475 19.8625 25 19.75 24.5L19.05 21.375H10.9875Z" fill="white"/>
<path d="M10.2375 21.375C10.0125 21.375 9.78751 21.3 9.61251 21.1375L5.93751 17.875C3.52501 15.8875 3.32501 13.9625 5.31251 11.4375L11.8 3.2125C12.6375 2.15 13.7875 1.5625 15.0125 1.5625C16.25 1.5625 17.3875 2.15 18.225 3.2125L24.7125 11.4375C26.675 13.925 26.5 15.7375 24.0875 17.875L20.4125 21.1375C20.025 21.475 19.425 21.45 19.0875 21.0625C18.75 20.675 18.775 20.0875 19.1625 19.7375L22.8375 16.475C24.4875 15.0125 24.5625 14.2875 23.2375 12.6L16.7625 4.375C15.8125 3.1625 14.225 3.1625 13.275 4.375L6.78751 12.6C5.42501 14.325 5.48751 15.0875 7.15001 16.45L10.85 19.7375C11.2375 20.075 11.275 20.675 10.925 21.0625C10.75 21.2625 10.5 21.375 10.2375 21.375Z" fill="white"/>
<path d="M15.0125 9.6499C14.5 9.6499 14.075 9.2249 14.075 8.7124V3.3374C14.075 2.8249 14.5 2.3999 15.0125 2.3999C15.525 2.3999 15.95 2.8249 15.95 3.3374V8.7124C15.95 9.2249 15.525 9.6499 15.0125 9.6499Z" fill="white"/>
<path d="M17.6875 28.4375H12.3375C11.0625 28.4375 9.88749 27.9 9.13749 26.95C8.47499 26.125 8.23749 25.075 8.46249 24.075L9.32499 20.225C9.42499 19.8 9.79999 19.5 10.2375 19.5H19.7875C20.225 19.5 20.6 19.8 20.7 20.225L21.575 24.075C21.8125 25.15 21.5875 26.1875 20.9375 27C20.2125 27.9125 19.025 28.4375 17.6875 28.4375ZM10.9875 21.375L10.2875 24.5C10.1875 24.95 10.3 25.4 10.6 25.7875C10.9875 26.275 11.6375 26.5625 12.3375 26.5625H17.7C18.4625 26.5625 19.1125 26.3 19.475 25.8375C19.775 25.475 19.8625 25 19.75 24.5L19.05 21.375H10.9875Z" fill="white"/>
<path d="M10.2375 21.375C10.0125 21.375 9.78751 21.3 9.61251 21.1375L5.93751 17.875C3.52501 15.8875 3.32501 13.9625 5.31251 11.4375L11.8 3.2125C12.6375 2.15 13.7875 1.5625 15.0125 1.5625C16.25 1.5625 17.3875 2.15 18.225 3.2125L24.7125 11.4375C26.675 13.925 26.5 15.7375 24.0875 17.875L20.4125 21.1375C20.025 21.475 19.425 21.45 19.0875 21.0625C18.75 20.675 18.775 20.0875 19.1625 19.7375L22.8375 16.475C24.4875 15.0125 24.5625 14.2875 23.2375 12.6L16.7625 4.375C15.8125 3.1625 14.225 3.1625 13.275 4.375L6.78751 12.6C5.42501 14.325 5.48751 15.0875 7.15001 16.45L10.85 19.7375C11.2375 20.075 11.275 20.675 10.925 21.0625C10.75 21.2625 10.5 21.375 10.2375 21.375Z" fill="white"/>
<path d="M15.0125 9.6499C14.5 9.6499 14.075 9.2249 14.075 8.7124V3.3374C14.075 2.8249 14.5 2.3999 15.0125 2.3999C15.525 2.3999 15.95 2.8249 15.95 3.3374V8.7124C15.95 9.2249 15.525 9.6499 15.0125 9.6499Z" fill="white"/>
</svg>
