<svg width="30" height="30" viewBox="0 0 30 30" fill="none" xmlns="http://www.w3.org/2000/svg">
<path d="M15 24.375H19.9061C20.7702 24.375 21.5368 24.35 22.2198 24.2625C25.8854 23.9 26.875 22.35 26.875 18.125V11.875C26.875 7.65 25.8854 6.1 22.2198 5.7375C21.5368 5.65 20.7702 5.625 19.9061 5.625H15.0836" fill="white"/>
<path d="M15 24.375H19.9061C20.7702 24.375 21.5368 24.35 22.2198 24.2625C25.8854 23.9 26.875 22.35 26.875 18.125V11.875C26.875 7.65 25.8854 6.1 22.2198 5.7375C21.5368 5.65 20.7702 5.625 19.9061 5.625H15.0836" stroke="white" stroke-width="1.8" stroke-linecap="round" stroke-linejoin="round"/>
<path d="M13.7251 5.625H10.6251C9.8501 5.625 7.9126 5.65 7.3001 5.7375C4.0126 6.1 3.1251 7.65 3.1251 11.875V18.125C3.1251 22.35 4.0126 23.9 7.3001 24.2625C7.9126 24.35 9.8501 24.375 10.6251 24.375H13.7251" stroke="white" stroke-width="1.8" stroke-linecap="round" stroke-linejoin="round" stroke-dasharray="2 2"/>
<path d="M15 2.5V27.5" stroke="white" stroke-width="1.8" stroke-linecap="round" stroke-linejoin="round"/>
</svg>
