<svg width="30" height="30" viewBox="0 0 30 30" fill="none" xmlns="http://www.w3.org/2000/svg">
<path d="M19.4749 14.9999C19.4749 17.4749 17.4749 19.4749 14.9999 19.4749C12.5249 19.4749 10.5249 17.4749 10.5249 14.9999C10.5249 12.5249 12.5249 10.5249 14.9999 10.5249C17.4749 10.5249 19.4749 12.5249 19.4749 14.9999Z" stroke="white" stroke-width="1.8" stroke-linecap="round" stroke-linejoin="round"/>
<path d="M15 25.3374C19.4125 25.3374 23.525 22.7374 26.3875 18.2374C27.5125 16.4749 27.5125 13.5124 26.3875 11.7499C23.525 7.2499 19.4125 4.6499 15 4.6499C10.5875 4.6499 6.47505 7.2499 3.61255 11.7499C2.48755 13.5124 2.48755 16.4749 3.61255 18.2374C6.47505 22.7374 10.5875 25.3374 15 25.3374Z" stroke="white" stroke-width="1.8" stroke-linecap="round" stroke-linejoin="round"/>
</svg>
