<svg width="30" height="30" viewBox="0 0 30 30" fill="none" xmlns="http://www.w3.org/2000/svg">
<path d="M15 17.3126C14.8375 17.3126 14.675 17.2751 14.5375 17.1876C14.0875 16.9251 13.9375 16.3501 14.1875 15.9126L15.25 14.0626H14.2C13.575 14.0626 13.0625 13.7876 12.7875 13.3251C12.5125 12.8501 12.5375 12.2751 12.85 11.7251L14.1875 9.40012C14.45 8.95012 15.025 8.80012 15.4625 9.05012C15.9125 9.31262 16.0625 9.88762 15.8125 10.3251L14.75 12.1876H15.8C16.425 12.1876 16.9375 12.4626 17.2125 12.9251C17.4875 13.4001 17.4625 13.9751 17.15 14.5251L15.8125 16.8501C15.6375 17.1501 15.325 17.3126 15 17.3126Z" fill="white"/>
<path d="M18.4625 24.6874H11.575C11.025 24.6874 10.325 24.6249 9.86252 24.1499C9.41252 23.6874 9.42502 23.1124 9.43752 22.7249V21.6124C6.28752 19.5124 4.21252 15.8624 4.21252 12.3874C4.21252 9.09987 5.68752 6.02488 8.25002 3.96238C10.8125 1.89988 14.175 1.12488 17.4625 1.84988C20.5875 2.53738 23.2875 4.62488 24.6875 7.43738C27.4 12.8999 24.7875 18.8124 20.6125 21.6249V22.5624C20.625 22.9249 20.6375 23.5874 20.125 24.1124C19.7375 24.4874 19.1875 24.6874 18.4625 24.6874ZM11.3 22.7999C11.3625 22.7999 11.45 22.8124 11.5625 22.8124H18.4625C18.5875 22.8124 18.675 22.7999 18.725 22.7874C18.725 22.7499 18.725 22.6999 18.725 22.6624V21.0874C18.725 20.7624 18.9 20.4499 19.175 20.2874C22.875 18.0499 25.325 12.9374 22.9875 8.24988C21.8375 5.93738 19.6125 4.22488 17.0375 3.66238C14.3125 3.06238 11.525 3.69988 9.40002 5.41238C7.27502 7.12488 6.06252 9.66238 6.06252 12.3874C6.06252 15.8624 8.46252 18.8624 10.8375 20.2999C11.125 20.4749 11.2875 20.7749 11.2875 21.0999V22.7874C11.3 22.7874 11.3 22.7874 11.3 22.7999Z" fill="white"/>
<path d="M19.375 28.4373C19.2875 28.4373 19.2 28.4248 19.1125 28.3998C16.4125 27.6248 13.575 27.6248 10.875 28.3998C10.375 28.5373 9.86251 28.2498 9.71251 27.7498C9.56251 27.2498 9.86251 26.7373 10.3625 26.5873C13.3875 25.7248 16.6 25.7248 19.625 26.5873C20.125 26.7248 20.4125 27.2498 20.275 27.7498C20.1625 28.1748 19.7875 28.4373 19.375 28.4373Z" fill="white"/>
</svg>
