<svg width="30" height="30" viewBox="0 0 30 30" fill="none" xmlns="http://www.w3.org/2000/svg">
<path d="M22.3376 27.3377C21.9501 27.3377 21.5626 27.2377 21.2126 27.0252L16.2001 24.0502C15.6751 24.0377 15.1501 24.0002 14.6501 23.9252C14.3126 23.8752 14.0251 23.6502 13.9001 23.3251C13.7751 23.0001 13.8376 22.6502 14.0626 22.3876C14.8876 21.4251 15.3126 20.2752 15.3126 19.0502C15.3126 16.0252 12.6501 13.5627 9.3751 13.5627C8.1501 13.5627 6.97509 13.9002 5.98759 14.5502C5.71259 14.7252 5.37509 14.7502 5.07509 14.6127C4.78759 14.4752 4.5751 14.2002 4.5376 13.8752C4.5001 13.5252 4.4751 13.1752 4.4751 12.8127C4.4751 6.61268 9.8501 1.5752 16.4501 1.5752C23.0501 1.5752 28.4251 6.61268 28.4251 12.8127C28.4251 16.2127 26.8501 19.3377 24.0751 21.4752L24.5001 24.8752C24.6001 25.7252 24.2251 26.5252 23.5126 26.9877C23.1626 27.2127 22.7501 27.3377 22.3376 27.3377ZM16.4376 22.1627C16.6126 22.1502 16.7876 22.2002 16.9376 22.3002L22.1751 25.4127C22.3126 25.5002 22.4251 25.4627 22.5001 25.4127C22.5626 25.3752 22.6626 25.2752 22.6376 25.1002L22.1501 21.1502C22.1126 20.8002 22.2626 20.4627 22.5376 20.2627C25.0876 18.4752 26.5501 15.7502 26.5501 12.7877C26.5501 7.62516 22.0251 3.42517 16.4501 3.42517C11.0876 3.42517 6.68759 7.32522 6.36259 12.2252C7.30009 11.8627 8.3126 11.6627 9.3626 11.6627C13.6751 11.6627 17.1751 14.9626 17.1751 19.0251C17.1876 20.1251 16.9251 21.1877 16.4376 22.1627Z" fill="white"/>
<path d="M5.72472 28.4378C5.39972 28.4378 5.08721 28.3503 4.79971 28.1628C4.23721 27.8003 3.93722 27.1753 4.01222 26.5128L4.26222 24.5877C2.57472 23.2127 1.57471 21.1752 1.57471 19.0377C1.57471 16.6002 2.84972 14.3253 4.98722 12.9628C6.27472 12.1253 7.79971 11.6753 9.38721 11.6753C13.6997 11.6753 17.1997 14.9752 17.1997 19.0377C17.1997 20.6877 16.5997 22.3128 15.4997 23.6003C14.0872 25.3128 11.9747 26.3127 9.64972 26.3877L6.59971 28.2003C6.32471 28.3628 6.02472 28.4378 5.72472 28.4378ZM9.37471 13.5503C8.14971 13.5503 6.97471 13.8878 5.98721 14.5378C4.38721 15.5628 3.43721 17.2377 3.43721 19.0377C3.43721 20.7752 4.28722 22.3628 5.78722 23.3878C6.07472 23.5878 6.22471 23.9252 6.18721 24.2752L5.91221 26.4128L8.89971 24.6378C9.04971 24.5503 9.21221 24.5002 9.37471 24.5002C11.2122 24.5002 12.9497 23.7128 14.0497 22.3753C14.8747 21.4003 15.3122 20.2502 15.3122 19.0252C15.3122 16.0127 12.6497 13.5503 9.37471 13.5503Z" fill="white"/>
</svg>
