<svg width="30" height="30" viewBox="0 0 30 30" fill="none" xmlns="http://www.w3.org/2000/svg">
<path d="M15 17.5C16.3807 17.5 17.5 16.3807 17.5 15C17.5 13.6193 16.3807 12.5 15 12.5C13.6193 12.5 12.5 13.6193 12.5 15C12.5 16.3807 13.6193 17.5 15 17.5Z" stroke="white" stroke-width="1.8" stroke-linecap="round" stroke-linejoin="round"/>
<path d="M25 22.5C26.575 20.4125 27.5 17.8125 27.5 15C27.5 12.1875 26.575 9.5875 25 7.5" stroke="white" stroke-width="1.8" stroke-linecap="round" stroke-linejoin="round"/>
<path d="M5 7.5C3.425 9.5875 2.5 12.1875 2.5 15C2.5 17.8125 3.425 20.4125 5 22.5" stroke="white" stroke-width="1.8" stroke-linecap="round" stroke-linejoin="round"/>
<path d="M21 19.5C21.9375 18.25 22.5 16.6875 22.5 15C22.5 13.3125 21.9375 11.75 21 10.5" stroke="white" stroke-width="1.8" stroke-linecap="round" stroke-linejoin="round"/>
<path d="M9.00002 10.5C8.06252 11.75 7.5 13.3125 7.5 15C7.5 16.6875 8.06252 18.25 9.00002 19.5" stroke="white" stroke-width="1.8" stroke-linecap="round" stroke-linejoin="round"/>
</svg>
