<svg width="12" height="12" viewBox="0 0 12 12" fill="none" xmlns="http://www.w3.org/2000/svg">
<path d="M1.42383 2.34766C1.16602 2.34766 0.94401 2.26172 0.757812 2.08984C0.585938 1.90365 0.5 1.68164 0.5 1.42383C0.5 1.16602 0.585938 0.951172 0.757812 0.779297C0.94401 0.593099 1.16602 0.5 1.42383 0.5H10.5762C10.6478 0.5 10.7122 0.507161 10.7695 0.521484C10.8268 0.535807 10.8841 0.557292 10.9414 0.585938C10.9987 0.60026 11.0488 0.628906 11.0918 0.671875C11.1491 0.700521 11.1921 0.736328 11.2207 0.779297C11.235 0.779297 11.2422 0.779297 11.2422 0.779297C11.2852 0.822266 11.321 0.872396 11.3496 0.929688C11.3783 0.972656 11.4069 1.02279 11.4355 1.08008C11.4499 1.12305 11.4642 1.18034 11.4785 1.25195C11.4928 1.30924 11.5 1.36654 11.5 1.42383V10.5977C11.5 10.8411 11.4069 11.056 11.2207 11.2422C11.0488 11.4141 10.834 11.5 10.5762 11.5C10.3327 11.5 10.1178 11.4141 9.93164 11.2422C9.75977 11.056 9.67383 10.8411 9.67383 10.5977V3.63672L2.06836 11.2422C1.88216 11.4141 1.66016 11.5 1.40234 11.5C1.15885 11.5 0.951172 11.4141 0.779297 11.2422C0.593099 11.056 0.5 10.8411 0.5 10.5977C0.5 10.3398 0.593099 10.125 0.779297 9.95312L8.36328 2.34766H1.42383Z" fill="white"/>
</svg>
