<svg width="24" height="24" viewBox="0 0 24 24" fill="none" xmlns="http://www.w3.org/2000/svg">
<path d="M17 22H7C6.59 22 6.25 21.66 6.25 21.25C6.25 20.84 6.59 20.5 7 20.5H17C17.41 20.5 17.75 20.84 17.75 21.25C17.75 21.66 17.41 22 17 22Z" fill="#6E5BFB"/>
<path d="M20.8333 5.51906L16.6035 8.37906C16.043 8.75906 15.2393 8.52906 14.9961 7.91906L12.9975 2.87906C12.6591 2.00906 11.3584 2.00906 11.02 2.87906L9.01084 7.90906C8.76763 8.52906 7.97452 8.75906 7.41407 8.36906L3.1842 5.50906C2.33822 4.94906 1.2173 5.73906 1.56627 6.66906L5.96534 18.3191C6.11338 18.7191 6.51522 18.9791 6.95936 18.9791H17.037C17.4812 18.9791 17.883 18.7091 18.031 18.3191L22.4301 6.66906C22.7896 5.73906 21.6687 4.94906 20.8333 5.51906ZM14.6471 14.7491H9.35981C8.92625 14.7491 8.56671 14.4091 8.56671 13.9991C8.56671 13.5891 8.92625 13.2491 9.35981 13.2491H14.6471C15.0807 13.2491 15.4402 13.5891 15.4402 13.9991C15.4402 14.4091 15.0807 14.7491 14.6471 14.7491Z" fill="#6E5BFB"/>
</svg>
