<svg width="30" height="30" viewBox="0 0 30 30" fill="none" xmlns="http://www.w3.org/2000/svg">
<path d="M7.66427 19.0231L4.82466 21.8636C3.9115 22.777 3.9115 24.258 4.82466 25.1714C5.73782 26.0849 7.21836 26.0849 8.13152 25.1714L10.9711 22.331L12.5982 26.0997C12.712 26.3632 12.8765 26.61 13.0918 26.8253C14.0049 27.7388 15.4855 27.7388 16.3986 26.8253C16.7092 26.5147 16.9142 26.1383 17.0135 25.7409L20.3204 12.5096C20.513 11.7387 20.3081 10.8889 19.7055 10.2862C19.1029 9.6834 18.2534 9.47838 17.4827 9.67112L4.25528 12.979C3.85807 13.0783 3.48184 13.2833 3.1712 13.594C2.25804 14.5075 2.25804 15.9884 3.1712 16.9019C3.38644 17.1172 3.63324 17.2817 3.89665 17.3956L7.66427 19.0231Z" stroke="white" stroke-width="1.8" stroke-miterlimit="10" stroke-linecap="round" stroke-linejoin="round"/>
<path d="M24.0972 10.5742H27.5086" stroke="white" stroke-width="1.8" stroke-miterlimit="10" stroke-linecap="round" stroke-linejoin="round"/>
<path d="M23.1519 14.7271L25.5641 17.1401" stroke="white" stroke-width="1.8" stroke-miterlimit="10" stroke-linecap="round" stroke-linejoin="round"/>
<path d="M12.8979 4.39453L15.3102 6.80754" stroke="white" stroke-width="1.8" stroke-miterlimit="10" stroke-linecap="round" stroke-linejoin="round"/>
<path d="M19.373 2.49023V5.90272" stroke="white" stroke-width="1.8" stroke-miterlimit="10" stroke-linecap="round" stroke-linejoin="round"/>
<path d="M25.4035 4.98779L22.9912 7.4008" stroke="white" stroke-width="1.8" stroke-miterlimit="10" stroke-linecap="round" stroke-linejoin="round"/>
</svg>
