<svg width="24" height="24" viewBox="0 0 24 24" fill="none" xmlns="http://www.w3.org/2000/svg">
<path d="M16.9152 4.05712L16.8469 7.70027C16.8372 8.20012 17.159 8.86339 17.5687 9.16138L19.9874 10.9685C21.5382 12.122 21.2846 13.5351 19.4315 14.1118L16.2813 15.0827C15.7546 15.2461 15.1987 15.8132 15.0621 16.3419L14.3111 19.168C13.7162 21.3981 12.2337 21.6192 11.0049 19.6583L9.28831 16.9187C8.97622 16.4188 8.23498 16.0439 7.6498 16.0728L4.39227 16.2362C2.06129 16.3515 1.39808 15.025 2.91956 13.2755L4.85067 11.0647C5.21153 10.6513 5.37733 9.88232 5.21153 9.36324L4.21672 6.24878C3.64129 4.4224 4.67511 3.41308 6.51844 4.00906L9.3956 4.94148C9.88325 5.09528 10.6147 4.98954 11.0244 4.69155L14.0283 2.55757C15.6571 1.41368 16.9542 2.08655 16.9152 4.05712Z" fill="#6E5BFB"/>
<path d="M21.44 20.47L18.41 17.44C18.12 17.15 17.64 17.15 17.35 17.44C17.06 17.73 17.06 18.21 17.35 18.5L20.38 21.53C20.53 21.68 20.72 21.75 20.91 21.75C21.1 21.75 21.29 21.68 21.44 21.53C21.73 21.24 21.73 20.76 21.44 20.47Z" fill="#6E5BFB"/>
</svg>
