<svg width="30" height="30" viewBox="0 0 30 30" fill="none" xmlns="http://www.w3.org/2000/svg">
<path d="M12.5 5.625V22.5C12.5 23.85 11.95 25.0875 11.075 25.9875L11.025 26.0375C10.9125 26.15 10.7875 26.2625 10.675 26.35C10.3 26.675 9.87498 26.925 9.43748 27.1C9.29998 27.1625 9.1625 27.2125 9.025 27.2625C8.5375 27.425 8.0125 27.5 7.5 27.5C7.1625 27.5 6.82502 27.4625 6.50002 27.4C6.33752 27.3625 6.175 27.325 6.0125 27.275C5.8125 27.2125 5.62501 27.15 5.43751 27.0625C5.43751 27.05 5.4375 27.05 5.425 27.0625C5.075 26.8875 4.73751 26.6875 4.42501 26.45L4.4125 26.4375C4.25 26.3125 4.10002 26.1875 3.96252 26.0375C3.82502 25.8875 3.6875 25.7375 3.55 25.575C3.3125 25.2625 3.11251 24.925 2.93751 24.575C2.95001 24.5625 2.95001 24.5625 2.93751 24.5625C2.93751 24.5625 2.9375 24.55 2.925 24.5375C2.85 24.3625 2.78749 24.175 2.72499 23.9875C2.67499 23.825 2.63748 23.6625 2.59998 23.5C2.53748 23.175 2.5 22.8375 2.5 22.5V5.625C2.5 3.75 3.75 2.5 5.625 2.5H9.375C11.25 2.5 12.5 3.75 12.5 5.625Z" stroke="white" stroke-width="1.8" stroke-linecap="round" stroke-linejoin="round"/>
<path d="M27.5 20.625V24.375C27.5 26.25 26.25 27.5 24.375 27.5H7.5C8.0125 27.5 8.5375 27.425 9.025 27.2625C9.1625 27.2125 9.29998 27.1625 9.43748 27.1C9.87498 26.925 10.3 26.675 10.675 26.35C10.7875 26.2625 10.9125 26.15 11.025 26.0375L11.075 25.9875L19.575 17.5H24.375C26.25 17.5 27.5 18.75 27.5 20.625Z" stroke="white" stroke-width="1.8" stroke-linecap="round" stroke-linejoin="round"/>
<path d="M6.0126 27.2748C5.2626 27.0498 4.55012 26.6373 3.96262 26.0373C3.36262 25.4498 2.9501 24.7373 2.7251 23.9873C3.2126 25.5498 4.4501 26.7873 6.0126 27.2748Z" stroke="white" stroke-width="1.8" stroke-linecap="round" stroke-linejoin="round"/>
<path d="M22.9625 14.1127L19.575 17.5002L11.075 25.9877C11.95 25.0877 12.5 23.8502 12.5 22.5002V10.4252L15.8875 7.0377C17.2125 5.7127 18.9875 5.7127 20.3125 7.0377L22.9625 9.68769C24.2875 11.0127 24.2875 12.7877 22.9625 14.1127Z" stroke="white" stroke-width="1.8" stroke-linecap="round" stroke-linejoin="round"/>
<path d="M7.5 23.75C8.19036 23.75 8.75 23.1904 8.75 22.5C8.75 21.8096 8.19036 21.25 7.5 21.25C6.80964 21.25 6.25 21.8096 6.25 22.5C6.25 23.1904 6.80964 23.75 7.5 23.75Z" stroke="white" stroke-width="1.8" stroke-linecap="round" stroke-linejoin="round"/>
</svg>
