<svg width="130" height="30" viewBox="0 0 130 30" fill="none" xmlns="http://www.w3.org/2000/svg">
<path d="M71.4712 18.2294H56.7424V22.5786H71.4712V18.2294Z" fill="#6E5BFB"/>
<path d="M75.2865 25.6507H56.745V30H75.2865V25.6507Z" fill="#6E5BFB"/>
<path d="M61.0703 13.1267H56.745V30H61.0703V13.1267Z" fill="#6E5BFB"/>
<path d="M75.2883 10.4259H56.7424V14.7752H75.2883V10.4259Z" fill="#6E5BFB"/>
<path d="M50.7577 29.9967L39.0234 16.7997V10.4259L50.7577 23.623V29.9967Z" fill="#6E5BFB"/>
<path d="M39.0244 10.4242H34.6929V29.9996H39.0244V10.4242Z" fill="#6E5BFB"/>
<path d="M55.091 10.4242H50.7595V29.9996H55.091V10.4242Z" fill="#6E5BFB"/>
<path d="M83.3829 10.4242L88.7901 16.0128L85.5838 19.3272L76.9721 10.4242H83.3829Z" fill="#6E5BFB"/>
<path d="M102.319 29.9997H95.9072L90.6793 24.5966L93.8847 21.2758L102.319 29.9997Z" fill="#6E5BFB"/>
<path d="M123.255 10.4259H103.828V14.7752H111.376V29.9967H115.707V14.7752H123.255V10.4259Z" fill="#6E5BFB"/>
<path d="M102.484 4.42792C102.026 4.10226 101.365 3.87883 100.493 3.75038L97.873 3.3614C97.2171 3.26552 96.882 3.01585 96.882 2.61421V2.29037C96.882 2.04703 97.0027 1.85526 97.2514 1.70872C97.5469 1.55313 97.8784 1.47805 98.2117 1.49162H100.014C100.374 1.49162 100.668 1.59383 100.885 1.8046C101.109 2.01356 101.231 2.31208 101.215 2.61873H103.162C103.172 2.13659 103.034 1.66258 102.768 1.26185C102.494 0.856593 102.11 0.539987 101.661 0.348213C101.141 0.122066 100.579 0.0108014 100.014 0.022561H98.2117C97.6225 0.0135151 97.0351 0.102165 96.4748 0.284892C95.973 0.46581 95.591 0.712763 95.318 1.04475C95.0496 1.35683 94.9045 1.75666 94.9108 2.16825V2.84579C94.9108 3.37588 95.1333 3.81008 95.5721 4.15473C96.0108 4.49938 96.6658 4.73005 97.5243 4.85126L100.164 5.22124C100.851 5.31713 101.195 5.56589 101.195 5.95577V6.37098C101.195 6.61974 101.061 6.81784 100.8 6.96529C100.483 7.1254 100.131 7.20229 99.7766 7.18872H98.1865C97.736 7.18872 97.3847 7.07384 97.1369 6.82689C96.8892 6.57994 96.755 6.26514 96.755 5.8436H94.809C94.809 6.731 95.1009 7.4212 95.6928 7.9133C96.2847 8.4054 97.1045 8.66049 98.1541 8.66049H99.8018C100.4 8.67135 100.996 8.57908 101.564 8.38912C102.019 8.24348 102.427 7.97843 102.747 7.62293C103.021 7.31084 103.17 6.9083 103.167 6.49219V5.69434C103.169 5.1742 102.942 4.75176 102.484 4.42792Z" fill="#6E5BFB"/>
<path d="M120.815 0.119701L117.922 3.75344L115.033 0.119701H112.591L116.802 5.28401V8.56676H119.047V5.28401L123.258 0.119701H120.815Z" fill="#6E5BFB"/>
<path d="M105.758 0.143135H103.894V8.53683H105.758V0.143135Z" fill="#6E5BFB"/>
<path d="M105.907 4.33929L105.895 4.35376H105.92L109.896 8.55015H112.253L108.264 4.33929L112.253 0.129322H109.896L105.92 4.32662H105.895L105.907 4.33929Z" fill="#6E5BFB"/>
<path d="M102.802 10.4242C102.802 10.4242 88.8919 24.7946 83.6126 29.9996H76.6414C81.4946 25.682 95.8306 10.4242 95.8306 10.4242H102.802Z" fill="#9889FF"/>
<path d="M127.055 0.0208817C125.429 0.0208817 124.11 1.3452 124.11 2.97799C124.11 4.61077 125.429 5.93509 127.055 5.93509C128.681 5.93509 130 4.61077 130 2.97799C129.996 1.34611 128.68 0.0245 127.055 0.0208817ZM127.055 5.52622C125.653 5.52984 124.514 4.39186 124.511 2.98432C124.507 1.57678 125.641 0.433375 127.042 0.429756C128.444 0.426138 129.583 1.56411 129.587 2.97165C129.587 2.97346 129.587 2.97618 129.587 2.97799C129.585 4.38191 128.453 5.52079 127.055 5.52622Z" fill="#6E5BFB"/>
<path d="M127.863 3.5725C127.837 3.47751 127.799 3.38615 127.749 3.30112C127.701 3.23146 127.64 3.17267 127.568 3.12834V3.12201C127.688 3.08583 127.795 3.01436 127.874 2.91757C127.949 2.82621 127.989 2.71042 127.988 2.59192V2.34316C127.995 2.17852 127.929 2.02022 127.808 1.90895C127.671 1.79407 127.496 1.73527 127.318 1.74251H126.057V4.20842H126.469V3.27217H127.1C127.18 3.27217 127.257 3.30202 127.316 3.35539C127.386 3.42143 127.437 3.50556 127.463 3.59782L127.643 4.21114H128.063L127.863 3.5725ZM127.221 2.91395H126.457V2.09982H127.303C127.375 2.09711 127.445 2.12244 127.5 2.16948C127.547 2.22013 127.572 2.28617 127.57 2.35492V2.59735C127.574 2.68509 127.539 2.76922 127.475 2.82802C127.404 2.88863 127.313 2.91938 127.221 2.91395Z" fill="#6E5BFB"/>
<path fill-rule="evenodd" clip-rule="evenodd" d="M14.9387 15L22.4081 22.4999L14.9387 29.9999H0L7.46937 22.4999L14.9387 15L22.4081 7.5L29.8775 15L22.4081 22.4999L14.9387 15Z" fill="#4F40C5"/>
<path fill-rule="evenodd" clip-rule="evenodd" d="M14.9387 14.9999L22.4081 7.49996L14.9387 0H0L7.46937 7.49996L14.9387 14.9999Z" fill="#9889FF"/>
<path d="M22.4081 7.49727L14.9388 14.9971L22.4081 22.4969L29.8773 14.9971L22.4081 7.49727Z" fill="#6E5BFB"/>
</svg>
