<svg width="36" height="35" viewBox="0 0 36 35" fill="none" xmlns="http://www.w3.org/2000/svg">
<path d="M26.7209 15.7354V21.5688C26.7209 21.9479 26.7063 22.3125 26.6625 22.6625C26.3271 26.6 24.0084 28.5541 19.7354 28.5541H19.1521C18.7875 28.5541 18.4375 28.7292 18.2188 29.0208L16.4688 31.3542C15.6959 32.3896 14.4417 32.3896 13.6688 31.3542L11.9188 29.0208C11.7292 28.7729 11.3063 28.5541 10.9854 28.5541H10.4021C5.75003 28.5541 3.41669 27.4021 3.41669 21.5688V15.7354C3.41669 11.4625 5.38545 9.14376 9.30837 8.80835C9.65837 8.7646 10.0229 8.75 10.4021 8.75H19.7354C24.3875 8.75 26.7209 11.0833 26.7209 15.7354Z" stroke="#1D1D1F" stroke-width="2" stroke-miterlimit="10" stroke-linecap="round" stroke-linejoin="round"/>
<path d="M32.5542 9.90242V15.7358C32.5542 20.0233 30.5854 22.3274 26.6625 22.6628C26.7063 22.3128 26.7209 21.9483 26.7209 21.5691V15.7358C26.7209 11.0837 24.3875 8.75033 19.7354 8.75033H10.4021C10.0229 8.75033 9.65835 8.76492 9.30835 8.80867C9.64377 4.88575 11.9625 2.91699 16.2354 2.91699H25.5688C30.2208 2.91699 32.5542 5.25034 32.5542 9.90242Z" stroke="#1D1D1F" stroke-width="2" stroke-miterlimit="10" stroke-linecap="round" stroke-linejoin="round"/>
<path d="M20.1809 19.3229H20.194" stroke="#1D1D1F" stroke-width="2.5" stroke-linecap="round" stroke-linejoin="round"/>
<path d="M15.0768 19.3229H15.0899" stroke="#1D1D1F" stroke-width="2.5" stroke-linecap="round" stroke-linejoin="round"/>
<path d="M9.9726 19.3229H9.98573" stroke="#1D1D1F" stroke-width="2.5" stroke-linecap="round" stroke-linejoin="round"/>
</svg>
